<svg id="svg" xmlns="http://www.w3.org/2000/svg" xmlns:xlink="http://www.w3.org/1999/xlink" width="400" height="201.5267175572519" viewBox="0, 0, 400,201.5267175572519" version="1.1"><g id="svgg"><path id="path0" d="M160.400 27.099 C 155.915 29.408,151.169 32.940,149.852 34.948 C 148.536 36.955,145.368 39.872,142.813 41.430 C 140.225 43.009,139.214 44.266,140.530 44.269 C 141.829 44.272,145.608 41.469,148.927 38.039 C 154.818 31.951,163.313 26.673,170.992 24.328 C 174.220 23.343,174.326 23.143,171.682 23.032 C 169.962 22.960,164.885 24.790,160.400 27.099 M187.913 23.449 C 188.263 23.751,190.611 24.459,193.130 25.022 C 196.475 25.771,197.092 25.629,195.420 24.497 C 193.358 23.102,186.381 22.128,187.913 23.449 M204.886 31.918 C 208.832 35.424,212.921 40.670,213.971 43.574 C 215.220 47.027,216.866 48.855,218.728 48.855 C 220.294 48.855,222.874 49.550,224.461 50.400 C 226.642 51.567,228.578 51.195,232.376 48.879 C 235.142 47.193,236.699 45.810,235.836 45.807 C 234.973 45.804,232.880 46.773,231.184 47.961 C 227.362 50.638,217.219 48.020,215.953 44.030 C 214.583 39.713,206.076 29.882,201.786 27.656 C 199.175 26.302,200.288 27.833,204.886 31.918 M107.634 42.499 C 102.903 45.384,97.098 51.726,89.531 62.277 C 85.432 67.992,84.625 68.398,76.149 69.011 C 71.189 69.370,66.282 70.579,65.244 71.698 C 63.702 73.361,63.915 73.505,66.412 72.484 C 75.202 68.892,82.442 69.700,82.448 74.274 C 82.452 76.667,83.863 80.936,85.584 83.760 C 89.303 89.859,88.822 90.830,83.323 88.325 C 79.909 86.770,78.505 86.887,74.875 89.031 C 72.480 90.446,68.354 91.603,65.705 91.603 C 63.029 91.603,61.290 92.252,61.791 93.063 C 62.287 93.866,63.811 94.094,65.176 93.570 C 67.270 92.767,67.502 93.406,66.654 97.645 C 66.101 100.410,65.649 103.616,65.649 104.771 C 65.649 107.826,61.417 107.346,60.594 104.198 C 60.069 102.188,59.852 102.377,59.719 104.962 C 59.510 109.009,55.499 109.594,54.488 105.725 C 53.823 103.181,53.781 103.181,53.612 105.725 C 53.248 111.225,44.348 108.217,44.098 102.508 C 43.984 99.922,43.670 99.433,43.222 101.145 C 42.425 104.195,39.684 104.792,39.716 101.908 C 39.764 97.502,41.719 93.130,43.642 93.130 C 44.899 93.130,45.388 94.174,44.893 95.802 C 44.446 97.271,45.177 96.584,46.516 94.275 C 48.873 90.213,51.908 88.629,51.908 91.460 C 51.908 92.221,53.293 92.482,54.985 92.039 C 57.444 91.396,57.880 91.807,57.159 94.091 C 56.296 96.827,56.333 96.830,58.040 94.160 C 59.020 92.628,59.587 91.254,59.300 91.107 C 59.013 90.960,57.248 89.984,55.376 88.939 C 52.503 87.334,51.016 87.537,45.824 90.243 C 41.413 92.542,38.059 93.210,33.959 92.605 C 20.285 90.588,21.090 90.334,18.704 97.405 C 16.285 104.571,14.184 104.949,10.737 98.836 C 7.868 93.747,9.965 87.102,15.293 84.406 C 17.378 83.351,18.053 82.488,16.794 82.489 C 9.206 82.492,4.945 94.718,10.010 101.950 C 12.179 105.047,20.283 106.959,19.538 104.198 C 18.701 101.098,21.736 91.472,23.370 92.045 C 24.371 92.396,24.966 93.986,24.691 95.578 C 24.218 98.317,24.318 98.309,26.551 95.420 C 28.893 92.389,28.911 92.391,28.959 95.677 C 29.060 102.577,25.278 106.830,24.096 101.145 C 23.644 98.973,23.365 99.115,22.600 101.908 C 21.530 105.818,24.388 106.444,31.304 103.814 C 34.612 102.557,36.540 102.997,42.163 106.292 C 49.327 110.490,49.222 110.486,70.518 107.387 C 74.321 106.833,77.283 107.360,79.636 109.009 C 84.520 112.429,84.991 112.183,85.904 105.725 C 86.349 102.576,87.591 97.939,88.662 95.420 C 91.066 89.769,91.890 83.612,90.093 84.722 C 87.758 86.166,86.949 82.844,88.548 78.372 C 89.904 74.579,89.837 74.375,88.009 76.718 C 85.156 80.372,83.969 80.070,83.969 75.690 C 83.969 71.533,91.124 62.119,93.273 63.447 C 94.077 63.944,93.912 65.720,92.884 67.650 C 91.265 70.688,91.338 70.799,93.680 68.866 C 97.590 65.641,98.558 68.110,95.718 74.065 C 92.632 80.537,93.639 81.205,96.919 74.862 C 99.347 70.168,104.891 69.807,103.106 74.459 C 102.367 76.385,102.612 76.442,104.586 74.804 C 106.666 73.078,106.416 72.515,102.509 70.139 C 91.709 63.571,91.845 57.374,103.003 47.577 C 109.144 42.185,111.468 41.446,124.427 40.758 L 133.588 40.272 122.901 39.989 C 114.860 39.776,111.080 40.398,107.634 42.499 M246.183 43.800 C 247.653 44.185,250.057 44.185,251.527 43.800 C 252.996 43.416,251.794 43.102,248.855 43.102 C 245.916 43.102,244.714 43.416,246.183 43.800 M261.069 46.290 C 261.069 46.724,263.490 48.576,266.449 50.405 C 272.419 54.094,276.336 60.406,276.336 66.336 C 276.336 69.252,277.127 70.229,279.490 70.229 C 281.224 70.229,284.144 70.954,285.978 71.840 C 289.200 73.396,289.212 73.370,286.349 71.077 C 284.719 69.771,282.143 68.702,280.624 68.702 C 278.743 68.702,277.863 67.558,277.863 65.111 C 277.863 60.332,272.169 52.374,266.031 48.573 C 263.302 46.884,261.069 45.857,261.069 46.290 M151.796 62.214 C 152.335 64.523,153.934 68.633,155.347 71.347 C 159.313 78.962,157.057 80.073,141.807 78.021 C 134.841 77.083,128.458 75.634,127.624 74.799 C 126.790 73.965,122.008 73.282,116.997 73.282 C 111.987 73.282,108.336 73.731,108.885 74.279 C 109.433 74.827,107.756 78.990,105.158 83.530 C 102.561 88.070,100.710 92.059,101.045 92.394 C 101.380 92.729,103.874 88.967,106.586 84.033 C 111.464 75.161,111.591 75.064,118.354 75.064 C 125.773 75.064,126.240 75.583,122.852 80.063 C 121.619 81.693,120.622 83.754,120.636 84.643 C 120.651 85.532,122.048 84.097,123.741 81.454 C 125.958 77.993,127.655 76.867,129.805 77.429 C 131.447 77.858,132.475 78.719,132.090 79.342 C 131.705 79.965,133.062 80.155,135.104 79.765 L 138.819 79.055 134.347 87.311 C 129.215 96.786,121.345 114.243,122.895 112.714 C 123.468 112.149,127.482 104.592,131.815 95.920 C 137.927 83.690,140.465 80.043,143.130 79.665 C 146.601 79.172,147.847 81.470,145.046 83.201 C 144.211 83.717,142.781 85.647,141.869 87.490 C 140.923 89.400,141.951 88.708,144.262 85.878 C 146.490 83.149,149.294 80.916,150.492 80.916 C 152.995 80.916,153.408 83.334,151.145 84.733 C 150.305 85.252,149.630 86.495,149.644 87.495 C 149.658 88.495,151.100 87.080,152.847 84.351 C 154.595 81.622,156.569 79.389,157.235 79.389 C 157.900 79.389,158.716 77.063,159.048 74.219 C 159.462 70.672,159.084 69.267,157.843 69.743 C 155.118 70.789,153.679 67.351,155.781 64.819 C 158.289 61.797,162.423 61.907,161.250 64.965 C 160.728 66.323,160.984 66.936,161.850 66.401 C 164.492 64.768,163.490 62.742,158.854 60.345 C 152.229 56.918,150.655 57.335,151.796 62.214 M155.840 61.489 C 155.651 63.314,153.557 62.961,152.901 60.992 C 152.565 59.985,153.115 59.435,154.122 59.771 C 155.130 60.107,155.903 60.880,155.840 61.489 M167.939 62.686 C 165.367 63.449,165.011 63.867,166.848 63.970 C 169.146 64.098,169.310 64.660,167.890 67.557 C 166.297 70.808,166.366 70.796,169.168 67.319 C 174.714 60.438,177.650 64.280,173.085 72.446 C 170.951 76.265,169.563 79.389,170.001 79.389 C 170.439 79.389,172.342 76.641,174.229 73.282 C 178.030 66.520,184.839 64.062,181.631 70.611 L 179.948 74.046 182.785 70.536 C 184.653 68.225,186.513 67.369,188.231 68.028 C 191.554 69.303,191.731 68.598,185.500 78.931 C 182.563 83.801,180.183 88.473,180.210 89.313 C 180.237 90.153,182.702 86.546,185.689 81.298 C 188.675 76.050,191.764 71.756,192.554 71.756 C 195.597 71.756,195.579 76.482,192.515 81.439 C 188.015 88.721,188.513 90.436,193.148 83.615 C 198.826 75.259,203.531 77.125,199.042 85.954 C 196.193 91.558,197.743 90.583,201.465 84.430 C 203.920 80.371,203.869 80.198,198.932 75.863 C 196.161 73.430,193.893 70.522,193.893 69.401 C 193.893 68.135,191.145 66.963,186.641 66.308 C 182.653 65.727,177.672 64.420,175.573 63.403 C 173.334 62.319,170.177 62.022,167.939 62.686 M162.184 78.215 C 160.302 81.651,158.987 84.687,159.262 84.962 C 159.537 85.237,161.328 82.676,163.241 79.272 C 165.155 75.867,166.470 72.831,166.163 72.525 C 165.857 72.218,164.066 74.779,162.184 78.215 M59.284 75.722 C 57.373 77.633,56.167 77.798,53.714 76.485 C 48.185 73.526,41.645 74.534,36.313 79.165 C 33.554 81.560,30.267 83.911,29.008 84.388 C 27.102 85.110,27.139 85.275,29.228 85.376 C 30.609 85.442,33.945 83.435,36.641 80.916 C 42.144 75.776,49.133 74.868,54.463 78.601 C 57.442 80.687,57.893 80.567,60.181 77.074 C 63.049 72.697,62.754 72.252,59.284 75.722 M291.835 75.452 C 293.953 77.775,295.052 77.943,298.705 76.504 L 303.053 74.791 298.709 75.629 C 296.307 76.092,293.235 75.622,291.839 74.577 C 289.490 72.819,289.490 72.880,291.835 75.452 M312.214 75.822 C 319.018 77.288,326.792 81.565,329.124 85.125 C 331.284 88.421,332.306 88.762,337.173 87.813 C 340.239 87.215,345.496 86.192,348.855 85.539 C 354.001 84.538,354.269 84.322,350.559 84.161 C 348.137 84.055,343.532 84.756,340.324 85.717 C 334.804 87.370,334.195 87.202,328.909 82.561 C 322.706 77.115,317.516 74.720,312.496 74.986 C 309.435 75.149,309.412 75.218,312.214 75.822 M97.787 84.351 C 94.672 91.560,92.331 98.889,93.521 97.710 C 94.739 96.503,102.011 77.863,101.263 77.863 C 100.894 77.863,99.330 80.782,97.787 84.351 M112.093 84.802 C 109.856 88.618,108.283 91.998,108.598 92.313 C 108.912 92.627,111.056 89.504,113.363 85.373 C 118.638 75.926,117.575 75.447,112.093 84.802 M212.977 80.056 C 208.779 81.063,206.299 82.216,207.467 82.618 C 209.115 83.186,208.684 84.785,205.537 89.770 C 200.837 97.215,190.621 117.847,191.299 118.525 C 191.552 118.778,195.369 111.882,199.781 103.201 C 207.979 87.071,213.843 78.934,214.927 82.185 C 215.253 83.163,214.167 86.198,212.514 88.928 C 210.861 91.659,209.048 95.611,208.485 97.710 C 207.923 99.809,209.622 97.405,212.262 92.366 C 218.299 80.843,220.748 78.152,223.078 80.482 C 224.360 81.765,223.971 83.375,221.562 86.759 C 219.779 89.263,218.321 91.822,218.321 92.447 C 218.321 93.072,220.292 90.905,222.700 87.632 C 229.428 78.489,227.093 76.671,212.977 80.056 M164.122 88.550 C 161.995 92.748,160.597 96.183,161.017 96.183 C 161.437 96.183,163.521 92.748,165.649 88.550 C 167.776 84.351,169.174 80.916,168.754 80.916 C 168.334 80.916,166.250 84.351,164.122 88.550 M125.311 91.100 C 122.732 95.861,120.861 99.996,121.153 100.288 C 121.444 100.579,123.887 96.683,126.580 91.630 C 129.273 86.577,131.145 82.443,130.739 82.443 C 130.333 82.443,127.890 86.339,125.311 91.100 M172.439 86.471 C 171.596 88.687,171.190 90.783,171.536 91.129 C 171.883 91.476,172.897 89.663,173.790 87.101 C 175.775 81.406,174.577 80.847,172.439 86.471 M223.664 94.779 C 215.306 111.421,215.146 113.235,223.340 98.473 C 227.069 91.756,231.759 85.411,233.762 84.374 L 237.405 82.488 233.588 82.554 C 230.369 82.611,228.814 84.527,223.664 94.779 M233.814 90.982 C 226.931 102.353,228.294 102.710,235.448 91.410 C 238.570 86.478,240.631 82.462,240.028 82.486 C 239.425 82.510,236.629 86.333,233.814 90.982 M246.314 83.464 C 246.875 84.026,246.131 85.915,244.660 87.662 C 241.991 90.833,241.992 90.833,245.391 87.957 C 249.836 84.196,255.037 87.203,251.416 91.440 C 250.263 92.789,248.819 94.924,248.208 96.183 C 247.596 97.443,248.460 96.927,250.128 95.038 C 254.882 89.654,260.562 91.835,256.265 97.395 C 254.368 99.848,254.430 99.849,257.313 97.405 C 260.800 94.451,265.333 96.007,263.261 99.448 C 262.205 101.202,262.410 101.202,264.573 99.448 C 269.614 95.359,272.403 98.572,268.690 104.192 L 265.408 109.160 269.838 104.198 C 275.064 98.345,278.626 97.621,277.353 102.672 C 276.526 105.954,276.584 105.978,278.660 103.201 C 280.521 100.711,280.962 100.632,281.736 102.650 C 282.285 104.081,283.793 104.705,285.576 104.238 C 288.246 103.540,288.363 103.897,286.866 108.191 C 285.961 110.788,285.571 113.786,286.001 114.853 C 286.472 116.023,286.830 115.702,286.902 114.046 C 286.969 112.535,288.071 109.272,289.352 106.794 C 291.610 102.428,291.573 102.290,288.117 102.290 C 286.157 102.290,283.219 101.281,281.590 100.049 C 279.960 98.816,277.252 97.781,275.573 97.750 C 268.694 97.621,261.071 94.280,254.540 88.532 C 250.736 85.183,247.099 82.443,246.458 82.443 C 245.817 82.443,245.752 82.902,246.314 83.464 M358.015 87.259 C 371.652 94.718,365.086 106.090,349.081 102.733 C 344.703 101.815,337.928 101.424,334.026 101.863 C 330.124 102.303,324.956 101.975,322.543 101.134 C 319.259 99.989,317.430 100.134,315.274 101.710 C 313.690 102.869,309.261 103.827,305.433 103.840 C 301.124 103.855,299.238 104.348,300.480 105.136 C 301.584 105.836,304.161 106.089,306.206 105.698 C 310.310 104.914,310.682 105.654,308.362 109.989 C 305.360 115.599,300.181 117.085,301.366 111.996 C 302.114 108.790,301.972 108.240,300.833 109.924 C 299.981 111.183,299.273 113.343,299.260 114.722 C 299.247 116.102,298.150 117.648,296.822 118.157 C 293.419 119.463,293.415 119.460,292.681 115.649 C 292.113 112.704,291.989 112.812,291.811 116.412 C 291.598 120.713,285.552 122.890,285.450 118.702 C 285.424 117.643,284.711 117.983,283.847 119.466 C 280.979 124.390,278.941 122.486,279.847 115.728 C 280.406 111.558,280.218 110.091,279.308 111.530 C 278.539 112.746,277.899 114.894,277.886 116.303 C 277.873 117.713,276.669 120.059,275.211 121.518 C 271.541 125.188,286.496 123.504,298.059 118.946 C 304.185 116.531,306.740 116.169,308.758 117.429 C 313.424 120.342,322.835 119.357,328.762 115.335 C 333.415 112.177,335.463 111.726,341.750 112.471 C 350.570 113.515,355.104 111.814,351.751 108.718 C 349.996 107.099,349.618 107.166,349.618 109.100 C 349.618 110.393,348.540 111.450,347.222 111.450 C 345.600 111.450,344.995 110.341,345.350 108.015 C 345.638 106.126,346.787 104.775,347.903 105.014 C 349.020 105.253,352.247 105.535,355.075 105.642 C 359.645 105.813,359.925 106.057,357.589 107.831 C 356.144 108.928,355.749 109.848,356.712 109.875 C 360.254 109.973,368.124 99.179,367.063 95.676 C 365.688 91.133,360.285 85.486,357.367 85.543 C 355.552 85.578,355.711 85.999,358.015 87.259 M81.854 90.743 C 82.334 91.996,83.722 92.543,85.088 92.019 C 87.043 91.269,87.285 91.877,86.414 95.347 C 85.828 97.682,84.947 101.601,84.456 104.055 C 83.320 109.735,80.039 108.772,80.498 102.893 C 80.818 98.806,80.735 98.732,79.402 101.908 C 77.348 106.803,73.331 106.319,73.075 101.145 C 72.896 97.545,72.772 97.436,72.205 100.382 C 71.841 102.271,70.606 103.817,69.461 103.817 C 66.809 103.817,67.942 96.360,71.076 93.184 C 73.010 91.225,73.297 91.319,73.403 93.948 C 73.495 96.240,73.885 95.957,75.057 92.748 C 76.699 88.253,80.471 87.140,81.854 90.743 M113.751 97.066 C 111.498 100.911,109.906 104.308,110.214 104.616 C 110.521 104.923,112.682 101.778,115.016 97.626 C 120.360 88.120,119.275 87.641,113.751 97.066 M238.931 96.183 C 237.629 98.702,236.906 100.763,237.326 100.763 C 237.746 100.763,239.155 98.702,240.458 96.183 C 241.761 93.664,242.483 91.603,242.063 91.603 C 241.643 91.603,240.234 93.664,238.931 96.183 M183.432 99.618 C 181.727 103.187,179.903 108.168,179.380 110.687 C 178.856 113.206,180.230 111.145,182.434 106.107 C 184.637 101.069,186.817 96.088,187.277 95.038 C 189.512 89.937,186.135 93.960,183.432 99.618 M33.708 96.565 C 33.805 98.092,33.983 98.092,34.599 96.565 C 35.933 93.257,39.488 94.355,38.588 97.796 C 38.112 99.617,36.909 100.607,35.726 100.153 C 34.604 99.722,33.280 100.027,32.783 100.830 C 31.029 103.668,29.441 102.240,30.161 98.473 C 30.911 94.549,33.493 93.160,33.708 96.565 M105.315 100.274 C 101.882 109.188,101.890 109.654,105.371 103.328 C 107.136 100.120,108.351 96.808,108.071 95.968 C 107.791 95.128,106.551 97.066,105.315 100.274 M134.138 101.654 C 132.435 105.502,131.314 108.922,131.645 109.253 C 131.976 109.584,133.692 106.436,135.458 102.256 C 137.224 98.076,138.346 94.656,137.951 94.656 C 137.556 94.656,135.840 97.805,134.138 101.654 M191.623 99.717 C 188.353 107.544,188.879 108.713,192.544 101.764 C 194.247 98.536,195.256 95.511,194.787 95.041 C 194.317 94.572,192.894 96.676,191.623 99.717 M212.136 103.971 C 209.550 109.094,207.686 113.538,207.993 113.846 C 208.301 114.154,210.745 109.962,213.423 104.531 C 216.101 99.100,217.965 94.656,217.565 94.656 C 217.165 94.656,214.722 98.848,212.136 103.971 M143.046 101.546 C 141.650 104.474,140.822 106.870,141.207 106.870 C 142.252 106.870,146.886 97.522,146.188 96.824 C 145.856 96.493,144.443 98.618,143.046 101.546 M173.650 104.788 C 171.345 109.393,170.001 112.826,170.663 112.417 C 172.224 111.452,179.108 97.684,178.389 96.964 C 178.087 96.662,175.955 100.183,173.650 104.788 M146.965 107.996 C 142.158 118.670,138.961 129.556,141.915 125.191 C 142.767 123.931,143.476 121.870,143.489 120.611 C 143.503 119.351,145.591 113.929,148.130 108.562 C 150.670 103.195,152.492 98.548,152.181 98.237 C 151.870 97.926,149.523 102.317,146.965 107.996 M96.191 106.084 C 94.193 112.138,90.620 112.600,91.207 106.728 L 91.575 103.053 89.984 106.833 C 88.732 109.807,88.898 110.983,90.761 112.345 C 92.064 113.298,93.130 114.782,93.130 115.644 C 93.130 117.907,107.447 132.824,109.620 132.824 C 110.627 132.824,111.402 131.279,111.343 129.389 C 111.256 126.595,111.042 126.442,110.198 128.570 C 107.557 135.225,104.694 128.786,106.608 120.495 C 108.880 110.653,107.926 108.699,105.517 118.262 C 103.453 126.460,102.106 126.837,98.007 120.364 C 95.199 115.929,95.120 114.975,97.038 108.603 C 99.529 100.324,98.804 98.166,96.191 106.084 M249.865 108.214 C 244.239 118.551,244.810 120.137,250.588 110.224 C 253.184 105.771,254.998 101.817,254.618 101.438 C 254.239 101.058,252.100 104.108,249.865 108.214 M317.611 103.716 C 315.203 108.216,315.727 109.510,318.407 105.683 C 321.259 101.612,323.619 101.295,323.785 104.962 C 323.857 106.558,324.215 106.865,324.675 105.725 C 325.633 103.353,329.771 103.195,329.771 105.530 C 329.771 106.721,330.464 106.669,332.042 105.360 C 333.290 104.323,335.352 103.874,336.622 104.361 C 337.892 104.849,338.931 104.582,338.931 103.769 C 338.931 102.956,339.962 102.290,341.221 102.290 C 342.632 102.290,343.511 103.722,343.511 106.017 C 343.511 110.634,340.566 112.691,338.318 109.644 C 336.854 107.659,336.268 107.726,333.702 110.174 C 330.298 113.421,328.160 113.808,328.754 111.069 C 328.982 110.019,328.469 110.748,327.616 112.688 C 326.591 115.016,325.136 115.973,323.337 115.503 C 321.837 115.110,320.611 115.468,320.611 116.298 C 320.611 117.782,310.509 117.124,308.921 115.537 C 307.420 114.036,310.267 107.933,314.142 104.342 C 318.837 99.990,319.687 99.837,317.611 103.716 M259.966 104.198 C 258.165 106.526,256.328 111.450,257.261 111.450 C 257.633 111.450,259.003 109.389,260.305 106.870 C 262.743 102.156,262.574 100.828,259.966 104.198 M162.002 110.093 C 161.061 112.791,160.559 115.266,160.885 115.593 C 161.212 115.919,162.249 113.979,163.189 111.281 C 164.130 108.583,164.632 106.108,164.306 105.781 C 163.979 105.455,162.942 107.395,162.002 110.093 M200.265 114.525 C 197.666 120.406,195.496 123.434,194.229 122.948 C 193.141 122.530,191.861 123.204,191.385 124.444 C 190.909 125.685,189.799 126.254,188.917 125.710 C 187.981 125.131,187.768 125.452,188.404 126.482 C 189.003 127.451,188.766 128.244,187.876 128.244 C 186.987 128.244,186.260 129.196,186.260 130.359 C 186.260 134.053,178.995 137.939,178.145 134.699 C 177.635 132.755,177.407 132.965,177.276 135.496 C 177.179 137.385,176.298 138.931,175.318 138.931 C 174.338 138.931,173.931 139.325,174.413 139.807 C 175.961 141.355,184.134 136.200,189.100 130.544 C 193.501 125.531,194.349 125.172,198.868 126.408 C 201.590 127.153,204.688 127.466,205.752 127.104 C 206.816 126.742,208.988 128.052,210.579 130.017 C 214.139 134.414,235.686 134.565,234.004 130.181 C 233.494 128.850,232.463 128.739,230.482 129.799 C 226.618 131.867,225.969 131.702,225.857 128.626 C 225.783 126.579,225.438 126.757,224.380 129.389 C 223.620 131.279,221.946 132.824,220.660 132.824 C 219.304 132.824,218.246 131.380,218.144 129.389 C 218.004 126.675,217.816 126.533,217.252 128.710 C 216.141 132.996,212.960 130.756,213.122 125.803 C 213.202 123.367,212.983 122.576,212.634 124.046 C 211.851 127.354,210.100 127.439,206.979 124.318 C 205.660 122.999,204.580 122.655,204.580 123.555 C 204.580 124.455,203.206 125.191,201.527 125.191 C 197.570 125.191,197.694 123.112,202.235 113.359 C 204.287 108.950,205.597 105.344,205.145 105.344 C 204.693 105.344,202.497 109.475,200.265 114.525 M238.931 112.977 C 236.804 117.176,235.407 120.611,235.826 120.611 C 236.246 120.611,238.330 117.176,240.458 112.977 C 242.586 108.779,243.983 105.344,243.563 105.344 C 243.143 105.344,241.059 108.779,238.931 112.977 M230.534 112.977 C 228.821 116.336,227.762 119.084,228.182 119.084 C 228.602 119.084,230.348 116.336,232.061 112.977 C 233.775 109.618,234.833 106.870,234.413 106.870 C 233.993 106.870,232.248 109.618,230.534 112.977 M135.412 116.870 C 133.149 121.484,131.298 126.102,131.299 127.133 C 131.300 128.164,133.378 124.616,135.917 119.249 C 138.456 113.882,140.307 109.263,140.029 108.986 C 139.752 108.709,137.674 112.257,135.412 116.870 M152.841 113.147 C 151.901 115.845,151.398 118.320,151.725 118.646 C 152.052 118.973,153.088 117.032,154.029 114.334 C 154.969 111.636,155.472 109.161,155.145 108.835 C 154.819 108.508,153.782 110.449,152.841 113.147 M100.189 112.273 C 99.665 113.637,99.296 115.900,99.368 117.300 C 99.440 118.701,100.104 117.821,100.844 115.344 C 102.283 110.525,101.774 108.141,100.189 112.273 M113.917 116.970 C 112.565 120.937,111.724 124.446,112.046 124.769 C 112.369 125.092,113.739 122.111,115.091 118.144 C 116.443 114.178,117.284 110.668,116.961 110.345 C 116.638 110.022,115.268 113.004,113.917 116.970 M260.971 116.221 C 259.205 119.685,258.102 123.829,258.521 125.431 C 259.029 127.376,258.041 129.157,255.548 130.791 C 250.589 134.040,249.495 132.535,251.763 125.582 C 252.792 122.428,253.964 118.817,254.369 117.557 C 254.773 116.298,253.931 117.325,252.497 119.841 C 248.417 127.002,247.142 134.351,249.981 134.351 C 253.363 134.351,262.374 128.458,264.195 125.054 C 265.054 123.450,266.959 122.137,268.429 122.137 C 269.916 122.137,271.149 120.952,271.208 119.466 C 271.266 117.996,271.809 115.420,272.414 113.740 L 273.513 110.687 271.646 113.740 C 268.412 119.028,259.540 127.351,259.576 125.064 C 259.594 123.874,260.934 119.981,262.554 116.412 C 266.327 108.100,265.185 107.962,260.971 116.221 M220.884 118.392 C 217.298 125.913,217.802 127.192,221.552 120.085 C 223.255 116.857,224.378 113.946,224.048 113.616 C 223.718 113.285,222.294 115.435,220.884 118.392 M181.967 121.448 C 180.130 125.231,178.633 129.166,178.641 130.194 C 178.649 131.221,180.381 128.354,182.490 123.824 C 184.599 119.293,186.096 115.358,185.817 115.079 C 185.537 114.799,183.805 117.666,181.967 121.448 M118.509 121.433 C 117.986 122.798,117.616 125.060,117.688 126.461 C 117.761 127.862,118.425 126.981,119.165 124.504 C 120.604 119.686,120.095 117.301,118.509 121.433 M164.298 126.130 C 162.947 130.097,162.105 133.606,162.428 133.929 C 162.751 134.252,164.121 131.271,165.473 127.305 C 166.824 123.338,167.666 119.829,167.343 119.506 C 167.020 119.183,165.650 122.164,164.298 126.130 M172.738 126.885 C 170.938 131.215,169.494 135.525,169.528 136.463 C 169.563 137.401,171.321 134.144,173.436 129.226 C 175.551 124.307,176.995 119.997,176.645 119.648 C 176.296 119.298,174.537 122.555,172.738 126.885 M241.254 127.382 C 240.302 130.267,238.703 132.961,237.700 133.369 C 236.698 133.776,237.309 134.164,239.059 134.231 C 240.808 134.297,242.239 133.480,242.239 132.415 C 242.239 131.351,242.710 128.603,243.286 126.309 C 244.777 120.366,243.314 121.140,241.254 127.382 M124.327 129.008 C 123.402 133.938,117.557 137.275,117.557 132.872 C 117.557 132.059,116.416 131.831,115.022 132.366 C 110.662 134.040,119.038 136.233,125.766 135.180 C 129.758 134.555,132.801 134.985,135.117 136.502 C 138.384 138.643,138.548 138.553,138.519 134.643 C 138.503 132.383,138.188 131.393,137.820 132.443 C 136.848 135.213,133.227 134.781,131.420 131.679 C 130.564 130.210,129.843 129.793,129.817 130.753 C 129.792 131.712,128.662 132.923,127.308 133.443 C 125.224 134.242,124.999 133.560,125.850 129.026 C 126.403 126.077,126.512 123.664,126.093 123.664 C 125.673 123.664,124.878 126.069,124.327 129.008 M153.624 132.120 C 153.100 133.485,152.731 135.747,152.803 137.148 C 152.875 138.549,153.539 137.668,154.279 135.191 C 155.718 130.373,155.209 127.988,153.624 132.120 M144.474 136.260 C 143.086 141.439,143.152 141.561,148.319 143.362 C 156.130 146.085,173.894 143.917,171.781 140.499 C 171.332 139.773,169.070 140.124,166.753 141.280 C 158.097 145.598,144.468 142.496,145.961 136.548 C 146.475 134.500,146.558 132.824,146.145 132.824 C 145.732 132.824,144.980 134.370,144.474 136.260 " stroke="none" fill="#885B27" fill-rule="evenodd"></path></g></svg>