<svg width="200" height="219" viewBox="0 0 200 219" fill="none" xmlns="http://www.w3.org/2000/svg">
<path d="M93.5908 40.8516C94.8133 33.6318 105.187 33.6318 106.409 40.8516L108.993 56.1162C110.021 62.1869 117.522 64.5008 121.792 60.0645L132.117 49.3359C137.144 44.1141 145.654 49.7941 142.76 56.4395L135.459 73.2012C133.113 78.5872 137.59 84.4568 143.404 83.6191L160.399 81.1699C167.437 80.1557 170.76 89.5565 164.648 93.1904L148.061 103.054C143.171 105.961 143.171 113.039 148.061 115.946L164.648 125.81C170.76 129.443 167.437 138.844 160.399 137.83L143.404 135.381C137.59 134.543 133.113 140.413 135.459 145.799L142.76 162.561C145.654 169.206 137.144 174.886 132.117 169.663L121.792 158.936C117.522 154.499 110.021 156.813 108.993 162.884L106.409 178.148C105.187 185.368 94.8133 185.368 93.5908 178.148L91.0068 162.884C89.9788 156.813 82.4777 154.499 78.208 158.936L67.8828 169.663C62.8564 174.886 54.3459 169.206 57.2402 162.561L64.541 145.799C66.8866 140.413 62.4103 134.543 56.5957 135.381L39.6006 137.83C32.5629 138.844 29.2399 129.443 35.3516 125.81L51.9395 115.946C56.8288 113.039 56.8287 105.961 51.9395 103.054L35.3516 93.1904C29.2399 89.5565 32.5629 80.1557 39.6006 81.1699L56.5957 83.6191C62.4103 84.4568 66.8866 78.5872 64.541 73.2012L57.2402 56.4395C54.3459 49.7939 62.8564 44.1143 67.8828 49.3369L78.208 60.0645C82.4777 64.5008 89.9788 62.1869 91.0068 56.1162L93.5908 40.8516Z" fill="#EEC660" stroke="#FDFDFC"/>
<circle cx="100" cy="110" r="22.6415" stroke="#FDFDFC" stroke-width="4.71698"/>
</svg>
